<svg id="visual" viewBox="0 0 900 450" width="900" height="450" xmlns="http://www.w3.org/2000/svg" xmlns:xlink="http://www.w3.org/1999/xlink" version="1.1"><rect x="0" y="0" width="900" height="450" fill="#0083d1"></rect><path d="M0 414L18.8 418.8C37.7 423.7 75.3 433.3 112.8 437.3C150.3 441.3 187.7 439.7 225.2 434.3C262.7 429 300.3 420 337.8 418.3C375.3 416.7 412.7 422.3 450.2 421.8C487.7 421.3 525.3 414.7 562.8 415.7C600.3 416.7 637.7 425.3 675.2 431.3C712.7 437.3 750.3 440.7 787.8 439.2C825.3 437.7 862.7 431.3 881.3 428.2L900 425L900 451L881.3 451C862.7 451 825.3 451 787.8 451C750.3 451 712.7 451 675.2 451C637.7 451 600.3 451 562.8 451C525.3 451 487.7 451 450.2 451C412.7 451 375.3 451 337.8 451C300.3 451 262.7 451 225.2 451C187.7 451 150.3 451 112.8 451C75.3 451 37.7 451 18.8 451L0 451Z" fill="#FFFFFF" stroke-linecap="round" stroke-linejoin="miter"></path></svg>